<?xml version="1.0" encoding="UTF-8" standalone="no"?>
<!DOCTYPE svg PUBLIC "-//W3C//DTD SVG 1.1//EN" "http://www.w3.org/Graphics/SVG/1.1/DTD/svg11.dtd">
<svg width="100%" height="100%" viewBox="0 0 1024 1024" version="1.1" xmlns="http://www.w3.org/2000/svg" xmlns:xlink="http://www.w3.org/1999/xlink" xml:space="preserve" xmlns:serif="http://www.serif.com/" style="fill-rule:evenodd;clip-rule:evenodd;stroke-linejoin:round;stroke-miterlimit:2;">
    <g transform="matrix(2.10377e-16,-3.43572,2.76872,1.69535e-16,-640.015,2237)">
        <path d="M502.078,235.494L628.11,325.788L628.11,506.377L502.078,596.672L376.045,506.377L376.045,325.788L502.078,235.494Z" style="fill:rgb(235,235,235);"/>
        <clipPath id="_clip1">
            <path d="M502.078,235.494L628.11,325.788L628.11,506.377L502.078,596.672L376.045,506.377L376.045,325.788L502.078,235.494Z"/>
        </clipPath>
        <g clip-path="url(#_clip1)">
            <g transform="matrix(5.12233e-17,-1.03807,0.727649,5.52895e-17,-72.4469,913.416)">
                <ellipse cx="482.487" cy="698.604" rx="192.374" ry="110.029" style="fill:rgb(255,200,0);"/>
            </g>
            <g transform="matrix(5.12233e-17,-1.03807,0.727649,5.52895e-17,-28.788,913.416)">
                <ellipse cx="482.487" cy="698.604" rx="192.374" ry="110.029" style="fill:rgb(62,54,26);"/>
            </g>
            <g transform="matrix(5.12233e-17,-1.03807,0.727649,5.52895e-17,14.871,913.416)">
                <ellipse cx="482.487" cy="698.604" rx="192.374" ry="110.029" style="fill:rgb(255,200,0);"/>
            </g>
            <g transform="matrix(5.12233e-17,-1.03807,0.727649,5.52895e-17,58.5299,913.416)">
                <ellipse cx="482.487" cy="698.604" rx="192.374" ry="110.029" style="fill:rgb(62,54,26);"/>
            </g>
            <g transform="matrix(5.12233e-17,-1.03807,0.727649,5.52895e-17,109.465,913.416)">
                <ellipse cx="482.487" cy="698.604" rx="192.374" ry="110.029" style="fill:rgb(255,200,0);"/>
            </g>
            <g transform="matrix(5.12233e-17,-1.03807,0.727649,5.52895e-17,160.401,913.416)">
                <ellipse cx="482.487" cy="698.604" rx="192.374" ry="110.029" style="fill:rgb(62,54,26);"/>
            </g>
        </g>
    </g>
    <g transform="matrix(2.10377e-16,-3.43572,2.76872,1.69535e-16,-640.015,2237)">
        <path d="M376.045,398.024L376.045,325.788L502.078,235.494L628.11,325.788L628.11,398.024L502.078,307.729L376.045,398.024Z" style="fill:white;fill-opacity:0.21;"/>
    </g>
</svg>
